#!OML:ASF E:\acrobat2\Project_11_07_03\Capture day 1\Session 1\Acrobat.ASF
:FULLY-SPECIFIED
:DEGREES
483
root 10.9287 17.7457 -7.59074 4.318 9.20367 -3.70384
lowerback -5.73851 -1.79485 1.61777
upperback -0.423216 -2.55306 2.02354
thorax 2.80173 -1.26222 0.970649
lowerneck 0.7179 -2.32176 -1.11048
upperneck 5.64547 -3.45887 7.58252
head 1.834 -1.61026 2.57351
rclavicle -1.31974e-014 2.60408e-014
rhumerus -46.7849 -11.5907 -75.0536
rradius 20.4759
rwrist 13.2346
rhand 3.87606 -49.4582
rfingers 7.12502
rthumb 29.2974 -77.1704
lclavicle -1.31974e-014 2.60408e-014
lhumerus -26.2236 -12.8806 87.5305
lradius 29.4536
lwrist 12.8548
lhand -14.3 -10.7974
lfingers 7.12502
lthumb 11.8398 18.8479
rfemur -17.2575 0.650255 23.7531
rtibia 6.45402
rfoot -5.65069 -17.7055
rtoes 15.7942
lfemur 5.67832 0.0238317 -9.38337
ltibia 35.4567
lfoot 13.6232 -3.97086
ltoes 46.0158
484
root 10.9139 17.7846 -7.41406 4.18575 9.45361 -4.05602
lowerback -5.65848 -1.7648 1.91676
upperback -0.435503 -2.53329 2.17881
thorax 2.73837 -1.2499 0.967899
lowerneck 0.649281 -2.37778 -1.09113
upperneck 5.77905 -3.53883 7.49522
head 1.89078 -1.64657 2.53935
rclavicle 6.56611e-015 -1.72943e-014
rhumerus -46.366 -11.4419 -75.2686
rradius 20.7143
rwrist 12.7937
rhand 3.99148 -49.8126
rfingers 7.12502
rthumb 29.4076 -77.5055
lclavicle 6.56611e-015 -1.72943e-014
lhumerus -26.5526 -12.6955 87.6881
lradius 29.243
lwrist 12.915
lhand -14.146 -10.6949
lfingers 7.12502
lthumb 11.9884 18.9418
rfemur -16.3576 0.35545 24.3491
rtibia 6.21787
rfoot -5.8857 -17.2322
rtoes 15.6544
lfemur 4.43645 0.0877852 -8.69473
ltibia 37.8133
lfoot 15.1926 -1.96006
ltoes 44.6829
485
root 10.8998 17.8214 -7.2407 4.05302 9.76777 -4.34404
lowerback -5.56721 -1.7475 2.15779
upperback -0.43639 -2.52522 2.30376
thorax 2.6817 -1.244 0.965553
lowerneck 0.591379 -2.46151 -1.1155
upperneck 5.86231 -3.65533 7.47126
head 1.93392 -1.70227 2.53362
rclavicle -2.38852e-015 -8.34896e-015
rhumerus -45.9303 -11.1946 -75.5773
rradius 21.0358
rwrist 12.1955
rhand 4.10329 -50.0816
rfingers 7.12502
rthumb 29.5143 -77.7557
lclavicle -2.38852e-015 -8.34896e-015
lhumerus -26.8731 -12.6522 87.8559
lradius 29.0579
lwrist 13.0489
lhand -13.9616 -10.7426
lfingers 7.12502
lthumb 12.1661 18.8836
rfemur -15.3915 0.00325439 24.8495
rtibia 5.84578
rfoot -6.11936 -16.8338
rtoes 15.596
lfemur 3.11593 0.0341203 -8.13862
ltibia 40.1703
lfoot 16.728 -0.193363
ltoes 43.0737
486
root 10.887 17.8558 -7.07033 3.91792 10.1223 -4.59392
lowerback -5.46739 -1.73313 2.38254
upperback -0.427361 -2.51859 2.39886
thorax 2.62984 -1.23886 0.941585
lowerneck 0.541615 -2.57368 -1.1791
upperneck 5.92 -3.81092 7.5063
head 1.97205 -1.77792 2.55404
rclavicle 1.16134e-014 -9.34288e-015
rhumerus -45.4837 -10.8662 -75.9644
rradius 21.4288
rwrist 11.5091
rhand 4.21007 -50.2122
rfingers 7.12502
rthumb 29.6162 -77.8683
lclavicle 1.16134e-014 -9.34288e-015
lhumerus -27.1785 -12.7519 88.0324
lradius 28.8967
lwrist 13.2341
lhand -13.752 -10.9032
lfingers 7.12502
lthumb 12.3682 18.711
rfemur -14.3926 -0.361049 25.286
rtibia 5.38956
rfoot -6.34679 -16.529
rtoes 15.4791
lfemur 1.73373 -0.0901864 -7.67467
ltibia 42.5033
lfoot 18.1807 1.31807
ltoes 41.2957
487
root 10.8759 17.8875 -6.9026 3.77883 10.4927 -4.82168
lowerback -5.35794 -1.71427 2.6113
upperback -0.412657 -2.50469 2.46822
thorax 2.57712 -1.22997 0.889659
lowerneck 0.518091 -2.70269 -1.28558
upperneck 5.94912 -3.9897 7.6014
head 2.0006 -1.86607 2.60214
rclavicle -3.52781e-014 1.07344e-014
rhumerus -45.036 -10.472 -76.4027
rradius 21.8778
rwrist 10.792
rhand 4.29929 -50.1559
rfingers 7.12502
rthumb 29.7014 -77.7969
lclavicle -3.52781e-014 1.07344e-014
lhumerus -27.4705 -12.9816 88.2151
lradius 28.7599
lwrist 13.4385
lhand -13.492 -11.0993
lfingers 7.12502
lthumb 12.6189 18.4995
rfemur -13.3849 -0.689192 25.6814
rtibia 4.89386
rfoot -6.58848 -16.3232
rtoes 15.2471
lfemur 0.30711 -0.240654 -7.27342
ltibia 44.8074
lfoot 19.4178 2.63436
ltoes 39.689
488
root 10.8661 17.9167 -6.73716 3.64146 10.8449 -5.03356
lowerback -5.24722 -1.68412 2.84743
upperback -0.393524 -2.47507 2.51631
thorax 2.52713 -1.21307 0.812815
lowerneck 0.534665 -2.83448 -1.4155
upperneck 5.92796 -4.17012 7.72983
head 2.00778 -1.95688 2.66599
rclavicle -5.59082e-015 1.17283e-014
rhumerus -44.5829 -10.0102 -76.8801
rradius 22.3578
rwrist 10.0739
rhand 4.34983 -49.9089
rfingers 7.12502
rthumb 29.7496 -77.5412
lclavicle -5.59082e-015 1.17283e-014
lhumerus -27.7463 -13.3111 88.3944
lradius 28.6436
lwrist 13.6236
lhand -13.1657 -11.264
lfingers 7.12502
lthumb 12.9334 18.3152
rfemur -12.3972 -0.947753 26.0514
rtibia 4.40177
rfoot -6.84649 -16.1943
rtoes 14.8944
lfemur -1.15078 -0.370217 -6.92091
ltibia 47.0642
lfoot 20.2452 3.72794
ltoes 38.2047
489
root 10.8569 17.9433 -6.57405 3.51705 11.1366 -5.24871
lowerback -5.14241 -1.63486 3.10089
upperback -0.373114 -2.42048 2.55534
thorax 2.48106 -1.18351 0.71851
lowerneck 0.551079 -2.95899 -1.56334
upperneck 5.88752 -4.34018 7.87328
head 2.00968 -2.04311 2.73849
rclavicle -2.09966e-014 -2.78299e-014
rhumerus -44.1257 -9.47137 -77.3867
rradius 22.8689
rwrist 9.35744
rhand 4.35035 -49.5204
rfingers 7.12502
rthumb 29.7501 -77.1526
lclavicle -2.09966e-014 -2.78299e-014
lhumerus -28.0088 -13.7045 88.5652
lradius 28.5496
lwrist 13.7728
lhand -12.7625 -11.3668
lfingers 7.12502
lthumb 13.3221 18.1874
rfemur -11.4706 -1.10338 26.4282
rtibia 3.95909
rfoot -7.12727 -16.1181
rtoes 14.4691
lfemur -2.63531 -0.428293 -6.58795
ltibia 49.2525
lfoot 20.5099 4.50321
ltoes 36.5511
